<mxfile host="app.diagrams.net" modified="2023-04-23T15:53:36.749Z" agent="Mozilla/5.0 (X11; Linux x86_64) AppleWebKit/537.36 (KHTML, like Gecko) Chrome/112.0.0.0 Safari/537.36" version="21.2.1" etag="CzZvaqPPhqM-ladOYJ_C" type="github">
  <diagram name="Page-1" id="ZEUS0_kd6-qV7h3pa0-I">
    <mxGraphModel>
      <root>
        <mxCell id="0" />
        <mxCell id="1" parent="0" />
      </root>
    </mxGraphModel>
  </diagram>
</mxfile>
